<svg width="12" height="12" viewBox="0 0 12 12" fill="none" xmlns="http://www.w3.org/2000/svg">
<path d="M11.7232 4.88118L6.40388 0.228642C6.23095 0.0773916 6.00323 -0.00446295 5.7683 0.000187866C5.53338 0.00483868 5.30944 0.0956349 5.14329 0.253598L0.251063 4.90468L0 5.14334V12H4.71429V7.72183H7.28571V12H12V5.1233L11.7232 4.88118ZM5.78673 0.814904C5.79429 0.814904 5.78962 0.816458 5.78638 0.819488C5.78304 0.816458 5.77918 0.814904 5.78673 0.814904ZM11.1429 11.1851H8.14286V7.72183C8.14286 7.50571 8.05255 7.29844 7.89181 7.14562C7.73106 6.9928 7.51304 6.90694 7.28571 6.90694H4.71429C4.48696 6.90694 4.26894 6.9928 4.10819 7.14562C3.94745 7.29844 3.85714 7.50571 3.85714 7.72183V11.1851H0.857143V5.48088L5.78673 0.829801C5.78708 0.829496 5.78711 0.829216 5.78737 0.82891L11.1429 5.48088V11.1851Z" fill="white"/>
<path d="M11.7232 4.88118L6.40388 0.228642C6.23095 0.0773916 6.00323 -0.00446295 5.7683 0.000187866C5.53338 0.00483868 5.30944 0.0956349 5.14329 0.253598L0.251063 4.90468L0 5.14334V12H4.71429V7.72183H7.28571V12H12V5.1233L11.7232 4.88118ZM5.78673 0.814904C5.79429 0.814904 5.78962 0.816458 5.78638 0.819488C5.78304 0.816458 5.77918 0.814904 5.78673 0.814904ZM11.1429 11.1851H8.14286V7.72183C8.14286 7.50571 8.05255 7.29844 7.89181 7.14562C7.73106 6.9928 7.51304 6.90694 7.28571 6.90694H4.71429C4.48696 6.90694 4.26894 6.9928 4.10819 7.14562C3.94745 7.29844 3.85714 7.50571 3.85714 7.72183V11.1851H0.857143V5.48088L5.78673 0.829801C5.78708 0.829496 5.78711 0.829216 5.78737 0.82891L11.1429 5.48088V11.1851Z" fill="url(#paint0_linear)"/>
<path d="M11.7232 4.88118L6.40388 0.228642C6.23095 0.0773916 6.00323 -0.00446295 5.7683 0.000187866C5.53338 0.00483868 5.30944 0.0956349 5.14329 0.253598L0.251063 4.90468L0 5.14334V12H4.71429V7.72183H7.28571V12H12V5.1233L11.7232 4.88118ZM5.78673 0.814904C5.79429 0.814904 5.78962 0.816458 5.78638 0.819488C5.78304 0.816458 5.77918 0.814904 5.78673 0.814904ZM11.1429 11.1851H8.14286V7.72183C8.14286 7.50571 8.05255 7.29844 7.89181 7.14562C7.73106 6.9928 7.51304 6.90694 7.28571 6.90694H4.71429C4.48696 6.90694 4.26894 6.9928 4.10819 7.14562C3.94745 7.29844 3.85714 7.50571 3.85714 7.72183V11.1851H0.857143V5.48088L5.78673 0.829801C5.78708 0.829496 5.78711 0.829216 5.78737 0.82891L11.1429 5.48088V11.1851Z" fill="url(#paint1_linear)"/>
<defs>
<linearGradient id="paint0_linear" x1="6" y1="0" x2="6" y2="12" gradientUnits="userSpaceOnUse">
<stop stop-color="white"/>
<stop offset="1" stop-color="white" stop-opacity="0"/>
</linearGradient>
<linearGradient id="paint1_linear" x1="6" y1="0" x2="6" y2="12" gradientUnits="userSpaceOnUse">
<stop stop-color="white"/>
<stop offset="1" stop-color="white" stop-opacity="0"/>
</linearGradient>
</defs>
</svg>
