<svg width="12" height="9" viewBox="0 0 12 9" fill="none" xmlns="http://www.w3.org/2000/svg">
<path d="M11.1429 0.890625H0.857143C0.629814 0.890625 0.411797 0.974988 0.251051 1.12515C0.0903058 1.27532 0 1.47899 0 1.69136V8.09722C0 8.30958 0.0903058 8.51325 0.251051 8.66342C0.411797 8.81359 0.629814 8.89795 0.857143 8.89795H11.1429C11.3702 8.89795 11.5882 8.81359 11.7489 8.66342C11.9097 8.51325 12 8.30958 12 8.09722V1.69136C12 1.47899 11.9097 1.27532 11.7489 1.12515C11.5882 0.974988 11.3702 0.890625 11.1429 0.890625ZM9.5 1.89154L6 4.40584L2.5 1.89154H9.5ZM1 7.89703V1.89154L5.75571 5.22259C5.82746 5.26908 5.91269 5.294 6 5.294C6.08731 5.294 6.17254 5.26908 6.24429 5.22259L11 1.89154V7.89703H1Z" fill="white"/>
<path d="M11.1429 0.890625H0.857143C0.629814 0.890625 0.411797 0.974988 0.251051 1.12515C0.0903058 1.27532 0 1.47899 0 1.69136V8.09722C0 8.30958 0.0903058 8.51325 0.251051 8.66342C0.411797 8.81359 0.629814 8.89795 0.857143 8.89795H11.1429C11.3702 8.89795 11.5882 8.81359 11.7489 8.66342C11.9097 8.51325 12 8.30958 12 8.09722V1.69136C12 1.47899 11.9097 1.27532 11.7489 1.12515C11.5882 0.974988 11.3702 0.890625 11.1429 0.890625ZM9.5 1.89154L6 4.40584L2.5 1.89154H9.5ZM1 7.89703V1.89154L5.75571 5.22259C5.82746 5.26908 5.91269 5.294 6 5.294C6.08731 5.294 6.17254 5.26908 6.24429 5.22259L11 1.89154V7.89703H1Z" fill="url(#paint0_linear)"/>
<path d="M11.1429 0.890625H0.857143C0.629814 0.890625 0.411797 0.974988 0.251051 1.12515C0.0903058 1.27532 0 1.47899 0 1.69136V8.09722C0 8.30958 0.0903058 8.51325 0.251051 8.66342C0.411797 8.81359 0.629814 8.89795 0.857143 8.89795H11.1429C11.3702 8.89795 11.5882 8.81359 11.7489 8.66342C11.9097 8.51325 12 8.30958 12 8.09722V1.69136C12 1.47899 11.9097 1.27532 11.7489 1.12515C11.5882 0.974988 11.3702 0.890625 11.1429 0.890625ZM9.5 1.89154L6 4.40584L2.5 1.89154H9.5ZM1 7.89703V1.89154L5.75571 5.22259C5.82746 5.26908 5.91269 5.294 6 5.294C6.08731 5.294 6.17254 5.26908 6.24429 5.22259L11 1.89154V7.89703H1Z" fill="url(#paint1_linear)"/>
<defs>
<linearGradient id="paint0_linear" x1="6" y1="0.890625" x2="6" y2="8.89795" gradientUnits="userSpaceOnUse">
<stop stop-color="white"/>
<stop offset="1" stop-color="white" stop-opacity="0"/>
</linearGradient>
<linearGradient id="paint1_linear" x1="6" y1="0.890625" x2="6" y2="8.89795" gradientUnits="userSpaceOnUse">
<stop stop-color="white"/>
<stop offset="1" stop-color="white" stop-opacity="0"/>
</linearGradient>
</defs>
</svg>
