<svg width="12" height="13" viewBox="0 0 12 13" fill="none" xmlns="http://www.w3.org/2000/svg">
<path d="M11.4765 2.77216L9.87904 1.17486C9.68404 0.979706 9.42304 0.870117 9.14704 0.870117C8.87104 0.870117 8.61004 0.978205 8.41504 1.17486L6.69453 2.89376C6.49953 3.08891 6.39003 3.35163 6.39003 3.62785C6.39003 3.90558 6.49803 4.16529 6.69453 4.36195L8.03854 5.70854C7.73236 6.42249 7.29244 7.07119 6.74253 7.61958C6.19203 8.17353 5.54852 8.61039 4.83452 8.91964L3.49052 7.57305C3.29551 7.37789 3.03451 7.2683 2.75851 7.2683C2.62238 7.2678 2.48751 7.29449 2.36181 7.34682C2.23612 7.39915 2.12212 7.47606 2.02651 7.57305L0.304501 9.29194C0.109501 9.4871 0 9.74981 0 10.026C0 10.3038 0.108001 10.5635 0.304501 10.7601L1.90051 12.3574C2.23351 12.6907 2.69251 12.8813 3.16351 12.8813C3.26101 12.8813 3.35551 12.8738 3.45151 12.8573C5.43752 12.5301 7.40853 11.4717 9.00004 9.88042C10.59 8.28613 11.6461 6.31353 11.9761 4.32442C12.0706 3.75996 11.8816 3.17899 11.4765 2.77216ZM10.9125 4.14577C10.62 5.91571 9.66904 7.68114 8.23654 9.1148C6.80403 10.5485 5.04152 11.5002 3.27301 11.793C3.05101 11.8305 2.82301 11.7554 2.66101 11.5948L1.0935 10.026L2.75551 8.36119L4.55252 10.1626L4.56602 10.1762L4.89002 10.0561C5.87242 9.69458 6.76453 9.12362 7.50452 8.38277C8.24451 7.64193 8.81469 6.7489 9.17554 5.76558L9.29554 5.44132L7.48353 3.62935L9.14554 1.9645L10.713 3.53327C10.875 3.69541 10.95 3.92359 10.9125 4.14577Z" fill="white"/>
<path d="M11.4765 2.77216L9.87904 1.17486C9.68404 0.979706 9.42304 0.870117 9.14704 0.870117C8.87104 0.870117 8.61004 0.978205 8.41504 1.17486L6.69453 2.89376C6.49953 3.08891 6.39003 3.35163 6.39003 3.62785C6.39003 3.90558 6.49803 4.16529 6.69453 4.36195L8.03854 5.70854C7.73236 6.42249 7.29244 7.07119 6.74253 7.61958C6.19203 8.17353 5.54852 8.61039 4.83452 8.91964L3.49052 7.57305C3.29551 7.37789 3.03451 7.2683 2.75851 7.2683C2.62238 7.2678 2.48751 7.29449 2.36181 7.34682C2.23612 7.39915 2.12212 7.47606 2.02651 7.57305L0.304501 9.29194C0.109501 9.4871 0 9.74981 0 10.026C0 10.3038 0.108001 10.5635 0.304501 10.7601L1.90051 12.3574C2.23351 12.6907 2.69251 12.8813 3.16351 12.8813C3.26101 12.8813 3.35551 12.8738 3.45151 12.8573C5.43752 12.5301 7.40853 11.4717 9.00004 9.88042C10.59 8.28613 11.6461 6.31353 11.9761 4.32442C12.0706 3.75996 11.8816 3.17899 11.4765 2.77216ZM10.9125 4.14577C10.62 5.91571 9.66904 7.68114 8.23654 9.1148C6.80403 10.5485 5.04152 11.5002 3.27301 11.793C3.05101 11.8305 2.82301 11.7554 2.66101 11.5948L1.0935 10.026L2.75551 8.36119L4.55252 10.1626L4.56602 10.1762L4.89002 10.0561C5.87242 9.69458 6.76453 9.12362 7.50452 8.38277C8.24451 7.64193 8.81469 6.7489 9.17554 5.76558L9.29554 5.44132L7.48353 3.62935L9.14554 1.9645L10.713 3.53327C10.875 3.69541 10.95 3.92359 10.9125 4.14577Z" fill="url(#paint0_linear)"/>
<path d="M11.4765 2.77216L9.87904 1.17486C9.68404 0.979706 9.42304 0.870117 9.14704 0.870117C8.87104 0.870117 8.61004 0.978205 8.41504 1.17486L6.69453 2.89376C6.49953 3.08891 6.39003 3.35163 6.39003 3.62785C6.39003 3.90558 6.49803 4.16529 6.69453 4.36195L8.03854 5.70854C7.73236 6.42249 7.29244 7.07119 6.74253 7.61958C6.19203 8.17353 5.54852 8.61039 4.83452 8.91964L3.49052 7.57305C3.29551 7.37789 3.03451 7.2683 2.75851 7.2683C2.62238 7.2678 2.48751 7.29449 2.36181 7.34682C2.23612 7.39915 2.12212 7.47606 2.02651 7.57305L0.304501 9.29194C0.109501 9.4871 0 9.74981 0 10.026C0 10.3038 0.108001 10.5635 0.304501 10.7601L1.90051 12.3574C2.23351 12.6907 2.69251 12.8813 3.16351 12.8813C3.26101 12.8813 3.35551 12.8738 3.45151 12.8573C5.43752 12.5301 7.40853 11.4717 9.00004 9.88042C10.59 8.28613 11.6461 6.31353 11.9761 4.32442C12.0706 3.75996 11.8816 3.17899 11.4765 2.77216ZM10.9125 4.14577C10.62 5.91571 9.66904 7.68114 8.23654 9.1148C6.80403 10.5485 5.04152 11.5002 3.27301 11.793C3.05101 11.8305 2.82301 11.7554 2.66101 11.5948L1.0935 10.026L2.75551 8.36119L4.55252 10.1626L4.56602 10.1762L4.89002 10.0561C5.87242 9.69458 6.76453 9.12362 7.50452 8.38277C8.24451 7.64193 8.81469 6.7489 9.17554 5.76558L9.29554 5.44132L7.48353 3.62935L9.14554 1.9645L10.713 3.53327C10.875 3.69541 10.95 3.92359 10.9125 4.14577Z" fill="url(#paint1_linear)"/>
<defs>
<linearGradient id="paint0_linear" x1="6" y1="0.870117" x2="6" y2="12.8813" gradientUnits="userSpaceOnUse">
<stop stop-color="white"/>
<stop offset="1" stop-color="white" stop-opacity="0"/>
</linearGradient>
<linearGradient id="paint1_linear" x1="6" y1="0.870117" x2="6" y2="12.8813" gradientUnits="userSpaceOnUse">
<stop stop-color="white"/>
<stop offset="1" stop-color="white" stop-opacity="0"/>
</linearGradient>
</defs>
</svg>
