<svg width="141" height="22" viewBox="0 0 141 22" fill="none" xmlns="http://www.w3.org/2000/svg">
<path d="M0.024 21L4.184 0.0719986H7.64L3.48 21H0.024ZM8.774 21L12.934 0.0719986H16.326L20.422 12.2L21.638 16.712H21.766C21.894 15.624 22.022 14.4507 22.15 13.192C22.278 11.9333 22.4593 10.728 22.694 9.576L24.582 0.0719986H27.91L23.718 21H20.358L16.294 8.904L15.078 4.328H14.95C14.822 5.45867 14.6833 6.632 14.534 7.848C14.3847 9.064 14.1927 10.248 13.958 11.4L12.07 21H8.774ZM35.6495 9.32L34.0815 12.488H39.4255L39.2015 9.32C39.1375 8.232 39.0628 7.16533 38.9775 6.12C38.9135 5.07467 38.8602 3.976 38.8175 2.824H38.6895C38.1775 3.976 37.6762 5.07467 37.1855 6.12C36.7162 7.16533 36.2042 8.232 35.6495 9.32ZM26.0815 21L37.2815 0.0719986H41.3775L43.6175 21H40.0335L39.6175 15.112H32.8015L29.8895 21H26.0815ZM45.963 14.184L46.475 11.656H53.739L53.195 14.184H45.963ZM62.4933 9.32L60.9253 12.488H66.2693L66.0453 9.32C65.9813 8.232 65.9066 7.16533 65.8213 6.12C65.7573 5.07467 65.7039 3.976 65.6613 2.824H65.5333C65.0213 3.976 64.5199 5.07467 64.0293 6.12C63.5599 7.16533 63.0479 8.232 62.4933 9.32ZM52.9252 21L64.1253 0.0719986H68.2213L70.4613 21H66.8773L66.4613 15.112H59.6453L56.7333 21H52.9252ZM78.7588 21.384C77.8841 21.384 77.0841 21.2453 76.3588 20.968C75.6334 20.6693 75.0041 20.2533 74.4708 19.72C73.9374 19.1653 73.5214 18.4933 73.2228 17.704C72.9241 16.9147 72.7747 16.008 72.7747 14.984C72.7747 13.576 73.0094 12.264 73.4788 11.048C73.9694 9.81067 74.6201 8.744 75.4308 7.848C76.2628 6.93067 77.2228 6.216 78.3108 5.704C79.4201 5.17067 80.5828 4.904 81.7988 4.904C82.7588 4.904 83.5801 5.096 84.2628 5.48C84.9454 5.864 85.5001 6.312 85.9268 6.824L84.0068 8.904C83.6441 8.47733 83.2814 8.168 82.9188 7.976C82.5561 7.784 82.1081 7.688 81.5748 7.688C80.8708 7.688 80.1988 7.88 79.5588 8.264C78.9188 8.648 78.3534 9.17067 77.8628 9.832C77.3934 10.472 77.0094 11.2293 76.7108 12.104C76.4334 12.9573 76.2948 13.8747 76.2948 14.856C76.2948 16.0507 76.5508 16.9787 77.0628 17.64C77.5961 18.28 78.3961 18.6 79.4628 18.6C80.0814 18.6 80.6254 18.4827 81.0948 18.248C81.5854 17.992 82.0334 17.704 82.4388 17.384L83.9108 19.56C83.3134 19.9867 82.5988 20.4027 81.7668 20.808C80.9561 21.192 79.9534 21.384 78.7588 21.384ZM92.3525 21.384C91.4778 21.384 90.6778 21.2453 89.9525 20.968C89.2272 20.6693 88.5978 20.2533 88.0645 19.72C87.5312 19.1653 87.1152 18.4933 86.8165 17.704C86.5178 16.9147 86.3685 16.008 86.3685 14.984C86.3685 13.576 86.6032 12.264 87.0725 11.048C87.5632 9.81067 88.2138 8.744 89.0245 7.848C89.8565 6.93067 90.8165 6.216 91.9045 5.704C93.0138 5.17067 94.1765 4.904 95.3925 4.904C96.3525 4.904 97.1738 5.096 97.8565 5.48C98.5392 5.864 99.0938 6.312 99.5205 6.824L97.6005 8.904C97.2378 8.47733 96.8752 8.168 96.5125 7.976C96.1498 7.784 95.7018 7.688 95.1685 7.688C94.4645 7.688 93.7925 7.88 93.1525 8.264C92.5125 8.648 91.9472 9.17067 91.4565 9.832C90.9872 10.472 90.6032 11.2293 90.3045 12.104C90.0272 12.9573 89.8885 13.8747 89.8885 14.856C89.8885 16.0507 90.1445 16.9787 90.6565 17.64C91.1898 18.28 91.9898 18.6 93.0565 18.6C93.6752 18.6 94.2192 18.4827 94.6885 18.248C95.1792 17.992 95.6272 17.704 96.0325 17.384L97.5045 19.56C96.9072 19.9867 96.1925 20.4027 95.3605 20.808C94.5498 21.192 93.5472 21.384 92.3525 21.384ZM99.9622 14.728C99.9622 13.256 100.208 11.9227 100.698 10.728C101.21 9.512 101.872 8.47733 102.682 7.624C103.514 6.74933 104.442 6.07733 105.466 5.608C106.49 5.13867 107.514 4.904 108.538 4.904C109.456 4.904 110.224 5.05333 110.842 5.352C111.482 5.65067 111.994 6.06667 112.378 6.6C112.784 7.112 113.072 7.72 113.242 8.424C113.434 9.128 113.53 9.88533 113.53 10.696C113.53 11.3787 113.445 12.04 113.274 12.68C113.104 13.32 112.965 13.768 112.858 14.024H103.29C103.205 14.856 103.248 15.5707 103.418 16.168C103.589 16.7653 103.845 17.256 104.186 17.64C104.549 18.024 104.986 18.312 105.498 18.504C106.01 18.6747 106.565 18.76 107.162 18.76C107.717 18.76 108.282 18.632 108.858 18.376C109.434 18.12 109.936 17.832 110.362 17.512L111.642 19.72C111.002 20.168 110.224 20.5627 109.306 20.904C108.41 21.224 107.397 21.384 106.266 21.384C105.328 21.384 104.474 21.2347 103.706 20.936C102.938 20.6373 102.277 20.2107 101.722 19.656C101.168 19.08 100.73 18.3867 100.41 17.576C100.112 16.744 99.9622 15.7947 99.9622 14.728ZM103.578 11.848H110.522C110.565 11.6347 110.597 11.4213 110.618 11.208C110.661 10.9733 110.682 10.728 110.682 10.472C110.682 9.704 110.49 9.032 110.106 8.456C109.744 7.85867 109.082 7.56 108.122 7.56C107.162 7.56 106.256 7.944 105.402 8.712C104.57 9.45867 103.962 10.504 103.578 11.848ZM119.843 21.384C119.353 21.384 118.841 21.3093 118.307 21.16C117.795 21.0107 117.294 20.808 116.803 20.552C116.313 20.296 115.854 19.9867 115.427 19.624C115.001 19.24 114.638 18.824 114.339 18.376L116.387 16.712C116.899 17.3947 117.465 17.9173 118.083 18.28C118.723 18.6427 119.395 18.824 120.099 18.824C120.846 18.824 121.486 18.632 122.019 18.248C122.574 17.8427 122.851 17.352 122.851 16.776C122.851 16.2853 122.627 15.8693 122.179 15.528C121.731 15.1653 121.017 14.7067 120.035 14.152C118.99 13.576 118.169 12.9467 117.571 12.264C116.974 11.5813 116.675 10.76 116.675 9.8C116.675 9.096 116.825 8.44533 117.123 7.848C117.422 7.22933 117.827 6.70667 118.339 6.28C118.873 5.85333 119.481 5.52267 120.163 5.288C120.867 5.032 121.614 4.904 122.403 4.904C123.427 4.904 124.345 5.11733 125.155 5.544C125.987 5.97067 126.713 6.504 127.331 7.144L125.411 8.968C125.006 8.56267 124.558 8.22133 124.067 7.944C123.577 7.64533 123.022 7.496 122.403 7.496C121.678 7.496 121.081 7.688 120.611 8.072C120.142 8.456 119.907 8.92533 119.907 9.48C119.907 9.77867 119.982 10.0347 120.131 10.248C120.281 10.4613 120.483 10.664 120.739 10.856C120.995 11.048 121.283 11.2293 121.603 11.4C121.923 11.5707 122.254 11.752 122.595 11.944C123.769 12.5627 124.643 13.2133 125.219 13.896C125.795 14.5787 126.083 15.4 126.083 16.36C126.083 17.128 125.923 17.8213 125.603 18.44C125.305 19.0587 124.878 19.592 124.323 20.04C123.769 20.4667 123.107 20.7973 122.339 21.032C121.571 21.2667 120.739 21.384 119.843 21.384ZM133.062 21.384C132.571 21.384 132.059 21.3093 131.526 21.16C131.014 21.0107 130.513 20.808 130.022 20.552C129.531 20.296 129.073 19.9867 128.646 19.624C128.219 19.24 127.857 18.824 127.558 18.376L129.606 16.712C130.118 17.3947 130.683 17.9173 131.302 18.28C131.942 18.6427 132.614 18.824 133.318 18.824C134.065 18.824 134.705 18.632 135.238 18.248C135.793 17.8427 136.07 17.352 136.07 16.776C136.07 16.2853 135.846 15.8693 135.398 15.528C134.95 15.1653 134.235 14.7067 133.254 14.152C132.209 13.576 131.387 12.9467 130.79 12.264C130.193 11.5813 129.894 10.76 129.894 9.8C129.894 9.096 130.043 8.44533 130.342 7.848C130.641 7.22933 131.046 6.70667 131.558 6.28C132.091 5.85333 132.699 5.52267 133.382 5.288C134.086 5.032 134.833 4.904 135.622 4.904C136.646 4.904 137.563 5.11733 138.374 5.544C139.206 5.97067 139.931 6.504 140.55 7.144L138.63 8.968C138.225 8.56267 137.777 8.22133 137.286 7.944C136.795 7.64533 136.241 7.496 135.622 7.496C134.897 7.496 134.299 7.688 133.83 8.072C133.361 8.456 133.126 8.92533 133.126 9.48C133.126 9.77867 133.201 10.0347 133.35 10.248C133.499 10.4613 133.702 10.664 133.958 10.856C134.214 11.048 134.502 11.2293 134.822 11.4C135.142 11.5707 135.473 11.752 135.814 11.944C136.987 12.5627 137.862 13.2133 138.438 13.896C139.014 14.5787 139.302 15.4 139.302 16.36C139.302 17.128 139.142 17.8213 138.822 18.44C138.523 19.0587 138.097 19.592 137.542 20.04C136.987 20.4667 136.326 20.7973 135.558 21.032C134.79 21.2667 133.958 21.384 133.062 21.384Z" fill="white"/>
<path d="M0.024 21L4.184 0.0719986H7.64L3.48 21H0.024ZM8.774 21L12.934 0.0719986H16.326L20.422 12.2L21.638 16.712H21.766C21.894 15.624 22.022 14.4507 22.15 13.192C22.278 11.9333 22.4593 10.728 22.694 9.576L24.582 0.0719986H27.91L23.718 21H20.358L16.294 8.904L15.078 4.328H14.95C14.822 5.45867 14.6833 6.632 14.534 7.848C14.3847 9.064 14.1927 10.248 13.958 11.4L12.07 21H8.774ZM35.6495 9.32L34.0815 12.488H39.4255L39.2015 9.32C39.1375 8.232 39.0628 7.16533 38.9775 6.12C38.9135 5.07467 38.8602 3.976 38.8175 2.824H38.6895C38.1775 3.976 37.6762 5.07467 37.1855 6.12C36.7162 7.16533 36.2042 8.232 35.6495 9.32ZM26.0815 21L37.2815 0.0719986H41.3775L43.6175 21H40.0335L39.6175 15.112H32.8015L29.8895 21H26.0815ZM45.963 14.184L46.475 11.656H53.739L53.195 14.184H45.963ZM62.4933 9.32L60.9253 12.488H66.2693L66.0453 9.32C65.9813 8.232 65.9066 7.16533 65.8213 6.12C65.7573 5.07467 65.7039 3.976 65.6613 2.824H65.5333C65.0213 3.976 64.5199 5.07467 64.0293 6.12C63.5599 7.16533 63.0479 8.232 62.4933 9.32ZM52.9252 21L64.1253 0.0719986H68.2213L70.4613 21H66.8773L66.4613 15.112H59.6453L56.7333 21H52.9252ZM78.7588 21.384C77.8841 21.384 77.0841 21.2453 76.3588 20.968C75.6334 20.6693 75.0041 20.2533 74.4708 19.72C73.9374 19.1653 73.5214 18.4933 73.2228 17.704C72.9241 16.9147 72.7747 16.008 72.7747 14.984C72.7747 13.576 73.0094 12.264 73.4788 11.048C73.9694 9.81067 74.6201 8.744 75.4308 7.848C76.2628 6.93067 77.2228 6.216 78.3108 5.704C79.4201 5.17067 80.5828 4.904 81.7988 4.904C82.7588 4.904 83.5801 5.096 84.2628 5.48C84.9454 5.864 85.5001 6.312 85.9268 6.824L84.0068 8.904C83.6441 8.47733 83.2814 8.168 82.9188 7.976C82.5561 7.784 82.1081 7.688 81.5748 7.688C80.8708 7.688 80.1988 7.88 79.5588 8.264C78.9188 8.648 78.3534 9.17067 77.8628 9.832C77.3934 10.472 77.0094 11.2293 76.7108 12.104C76.4334 12.9573 76.2948 13.8747 76.2948 14.856C76.2948 16.0507 76.5508 16.9787 77.0628 17.64C77.5961 18.28 78.3961 18.6 79.4628 18.6C80.0814 18.6 80.6254 18.4827 81.0948 18.248C81.5854 17.992 82.0334 17.704 82.4388 17.384L83.9108 19.56C83.3134 19.9867 82.5988 20.4027 81.7668 20.808C80.9561 21.192 79.9534 21.384 78.7588 21.384ZM92.3525 21.384C91.4778 21.384 90.6778 21.2453 89.9525 20.968C89.2272 20.6693 88.5978 20.2533 88.0645 19.72C87.5312 19.1653 87.1152 18.4933 86.8165 17.704C86.5178 16.9147 86.3685 16.008 86.3685 14.984C86.3685 13.576 86.6032 12.264 87.0725 11.048C87.5632 9.81067 88.2138 8.744 89.0245 7.848C89.8565 6.93067 90.8165 6.216 91.9045 5.704C93.0138 5.17067 94.1765 4.904 95.3925 4.904C96.3525 4.904 97.1738 5.096 97.8565 5.48C98.5392 5.864 99.0938 6.312 99.5205 6.824L97.6005 8.904C97.2378 8.47733 96.8752 8.168 96.5125 7.976C96.1498 7.784 95.7018 7.688 95.1685 7.688C94.4645 7.688 93.7925 7.88 93.1525 8.264C92.5125 8.648 91.9472 9.17067 91.4565 9.832C90.9872 10.472 90.6032 11.2293 90.3045 12.104C90.0272 12.9573 89.8885 13.8747 89.8885 14.856C89.8885 16.0507 90.1445 16.9787 90.6565 17.64C91.1898 18.28 91.9898 18.6 93.0565 18.6C93.6752 18.6 94.2192 18.4827 94.6885 18.248C95.1792 17.992 95.6272 17.704 96.0325 17.384L97.5045 19.56C96.9072 19.9867 96.1925 20.4027 95.3605 20.808C94.5498 21.192 93.5472 21.384 92.3525 21.384ZM99.9622 14.728C99.9622 13.256 100.208 11.9227 100.698 10.728C101.21 9.512 101.872 8.47733 102.682 7.624C103.514 6.74933 104.442 6.07733 105.466 5.608C106.49 5.13867 107.514 4.904 108.538 4.904C109.456 4.904 110.224 5.05333 110.842 5.352C111.482 5.65067 111.994 6.06667 112.378 6.6C112.784 7.112 113.072 7.72 113.242 8.424C113.434 9.128 113.53 9.88533 113.53 10.696C113.53 11.3787 113.445 12.04 113.274 12.68C113.104 13.32 112.965 13.768 112.858 14.024H103.29C103.205 14.856 103.248 15.5707 103.418 16.168C103.589 16.7653 103.845 17.256 104.186 17.64C104.549 18.024 104.986 18.312 105.498 18.504C106.01 18.6747 106.565 18.76 107.162 18.76C107.717 18.76 108.282 18.632 108.858 18.376C109.434 18.12 109.936 17.832 110.362 17.512L111.642 19.72C111.002 20.168 110.224 20.5627 109.306 20.904C108.41 21.224 107.397 21.384 106.266 21.384C105.328 21.384 104.474 21.2347 103.706 20.936C102.938 20.6373 102.277 20.2107 101.722 19.656C101.168 19.08 100.73 18.3867 100.41 17.576C100.112 16.744 99.9622 15.7947 99.9622 14.728ZM103.578 11.848H110.522C110.565 11.6347 110.597 11.4213 110.618 11.208C110.661 10.9733 110.682 10.728 110.682 10.472C110.682 9.704 110.49 9.032 110.106 8.456C109.744 7.85867 109.082 7.56 108.122 7.56C107.162 7.56 106.256 7.944 105.402 8.712C104.57 9.45867 103.962 10.504 103.578 11.848ZM119.843 21.384C119.353 21.384 118.841 21.3093 118.307 21.16C117.795 21.0107 117.294 20.808 116.803 20.552C116.313 20.296 115.854 19.9867 115.427 19.624C115.001 19.24 114.638 18.824 114.339 18.376L116.387 16.712C116.899 17.3947 117.465 17.9173 118.083 18.28C118.723 18.6427 119.395 18.824 120.099 18.824C120.846 18.824 121.486 18.632 122.019 18.248C122.574 17.8427 122.851 17.352 122.851 16.776C122.851 16.2853 122.627 15.8693 122.179 15.528C121.731 15.1653 121.017 14.7067 120.035 14.152C118.99 13.576 118.169 12.9467 117.571 12.264C116.974 11.5813 116.675 10.76 116.675 9.8C116.675 9.096 116.825 8.44533 117.123 7.848C117.422 7.22933 117.827 6.70667 118.339 6.28C118.873 5.85333 119.481 5.52267 120.163 5.288C120.867 5.032 121.614 4.904 122.403 4.904C123.427 4.904 124.345 5.11733 125.155 5.544C125.987 5.97067 126.713 6.504 127.331 7.144L125.411 8.968C125.006 8.56267 124.558 8.22133 124.067 7.944C123.577 7.64533 123.022 7.496 122.403 7.496C121.678 7.496 121.081 7.688 120.611 8.072C120.142 8.456 119.907 8.92533 119.907 9.48C119.907 9.77867 119.982 10.0347 120.131 10.248C120.281 10.4613 120.483 10.664 120.739 10.856C120.995 11.048 121.283 11.2293 121.603 11.4C121.923 11.5707 122.254 11.752 122.595 11.944C123.769 12.5627 124.643 13.2133 125.219 13.896C125.795 14.5787 126.083 15.4 126.083 16.36C126.083 17.128 125.923 17.8213 125.603 18.44C125.305 19.0587 124.878 19.592 124.323 20.04C123.769 20.4667 123.107 20.7973 122.339 21.032C121.571 21.2667 120.739 21.384 119.843 21.384ZM133.062 21.384C132.571 21.384 132.059 21.3093 131.526 21.16C131.014 21.0107 130.513 20.808 130.022 20.552C129.531 20.296 129.073 19.9867 128.646 19.624C128.219 19.24 127.857 18.824 127.558 18.376L129.606 16.712C130.118 17.3947 130.683 17.9173 131.302 18.28C131.942 18.6427 132.614 18.824 133.318 18.824C134.065 18.824 134.705 18.632 135.238 18.248C135.793 17.8427 136.07 17.352 136.07 16.776C136.07 16.2853 135.846 15.8693 135.398 15.528C134.95 15.1653 134.235 14.7067 133.254 14.152C132.209 13.576 131.387 12.9467 130.79 12.264C130.193 11.5813 129.894 10.76 129.894 9.8C129.894 9.096 130.043 8.44533 130.342 7.848C130.641 7.22933 131.046 6.70667 131.558 6.28C132.091 5.85333 132.699 5.52267 133.382 5.288C134.086 5.032 134.833 4.904 135.622 4.904C136.646 4.904 137.563 5.11733 138.374 5.544C139.206 5.97067 139.931 6.504 140.55 7.144L138.63 8.968C138.225 8.56267 137.777 8.22133 137.286 7.944C136.795 7.64533 136.241 7.496 135.622 7.496C134.897 7.496 134.299 7.688 133.83 8.072C133.361 8.456 133.126 8.92533 133.126 9.48C133.126 9.77867 133.201 10.0347 133.35 10.248C133.499 10.4613 133.702 10.664 133.958 10.856C134.214 11.048 134.502 11.2293 134.822 11.4C135.142 11.5707 135.473 11.752 135.814 11.944C136.987 12.5627 137.862 13.2133 138.438 13.896C139.014 14.5787 139.302 15.4 139.302 16.36C139.302 17.128 139.142 17.8213 138.822 18.44C138.523 19.0587 138.097 19.592 137.542 20.04C136.987 20.4667 136.326 20.7973 135.558 21.032C134.79 21.2667 133.958 21.384 133.062 21.384Z" fill="url(#paint0_linear)"/>
<path d="M0.024 21L4.184 0.0719986H7.64L3.48 21H0.024ZM8.774 21L12.934 0.0719986H16.326L20.422 12.2L21.638 16.712H21.766C21.894 15.624 22.022 14.4507 22.15 13.192C22.278 11.9333 22.4593 10.728 22.694 9.576L24.582 0.0719986H27.91L23.718 21H20.358L16.294 8.904L15.078 4.328H14.95C14.822 5.45867 14.6833 6.632 14.534 7.848C14.3847 9.064 14.1927 10.248 13.958 11.4L12.07 21H8.774ZM35.6495 9.32L34.0815 12.488H39.4255L39.2015 9.32C39.1375 8.232 39.0628 7.16533 38.9775 6.12C38.9135 5.07467 38.8602 3.976 38.8175 2.824H38.6895C38.1775 3.976 37.6762 5.07467 37.1855 6.12C36.7162 7.16533 36.2042 8.232 35.6495 9.32ZM26.0815 21L37.2815 0.0719986H41.3775L43.6175 21H40.0335L39.6175 15.112H32.8015L29.8895 21H26.0815ZM45.963 14.184L46.475 11.656H53.739L53.195 14.184H45.963ZM62.4933 9.32L60.9253 12.488H66.2693L66.0453 9.32C65.9813 8.232 65.9066 7.16533 65.8213 6.12C65.7573 5.07467 65.7039 3.976 65.6613 2.824H65.5333C65.0213 3.976 64.5199 5.07467 64.0293 6.12C63.5599 7.16533 63.0479 8.232 62.4933 9.32ZM52.9252 21L64.1253 0.0719986H68.2213L70.4613 21H66.8773L66.4613 15.112H59.6453L56.7333 21H52.9252ZM78.7588 21.384C77.8841 21.384 77.0841 21.2453 76.3588 20.968C75.6334 20.6693 75.0041 20.2533 74.4708 19.72C73.9374 19.1653 73.5214 18.4933 73.2228 17.704C72.9241 16.9147 72.7747 16.008 72.7747 14.984C72.7747 13.576 73.0094 12.264 73.4788 11.048C73.9694 9.81067 74.6201 8.744 75.4308 7.848C76.2628 6.93067 77.2228 6.216 78.3108 5.704C79.4201 5.17067 80.5828 4.904 81.7988 4.904C82.7588 4.904 83.5801 5.096 84.2628 5.48C84.9454 5.864 85.5001 6.312 85.9268 6.824L84.0068 8.904C83.6441 8.47733 83.2814 8.168 82.9188 7.976C82.5561 7.784 82.1081 7.688 81.5748 7.688C80.8708 7.688 80.1988 7.88 79.5588 8.264C78.9188 8.648 78.3534 9.17067 77.8628 9.832C77.3934 10.472 77.0094 11.2293 76.7108 12.104C76.4334 12.9573 76.2948 13.8747 76.2948 14.856C76.2948 16.0507 76.5508 16.9787 77.0628 17.64C77.5961 18.28 78.3961 18.6 79.4628 18.6C80.0814 18.6 80.6254 18.4827 81.0948 18.248C81.5854 17.992 82.0334 17.704 82.4388 17.384L83.9108 19.56C83.3134 19.9867 82.5988 20.4027 81.7668 20.808C80.9561 21.192 79.9534 21.384 78.7588 21.384ZM92.3525 21.384C91.4778 21.384 90.6778 21.2453 89.9525 20.968C89.2272 20.6693 88.5978 20.2533 88.0645 19.72C87.5312 19.1653 87.1152 18.4933 86.8165 17.704C86.5178 16.9147 86.3685 16.008 86.3685 14.984C86.3685 13.576 86.6032 12.264 87.0725 11.048C87.5632 9.81067 88.2138 8.744 89.0245 7.848C89.8565 6.93067 90.8165 6.216 91.9045 5.704C93.0138 5.17067 94.1765 4.904 95.3925 4.904C96.3525 4.904 97.1738 5.096 97.8565 5.48C98.5392 5.864 99.0938 6.312 99.5205 6.824L97.6005 8.904C97.2378 8.47733 96.8752 8.168 96.5125 7.976C96.1498 7.784 95.7018 7.688 95.1685 7.688C94.4645 7.688 93.7925 7.88 93.1525 8.264C92.5125 8.648 91.9472 9.17067 91.4565 9.832C90.9872 10.472 90.6032 11.2293 90.3045 12.104C90.0272 12.9573 89.8885 13.8747 89.8885 14.856C89.8885 16.0507 90.1445 16.9787 90.6565 17.64C91.1898 18.28 91.9898 18.6 93.0565 18.6C93.6752 18.6 94.2192 18.4827 94.6885 18.248C95.1792 17.992 95.6272 17.704 96.0325 17.384L97.5045 19.56C96.9072 19.9867 96.1925 20.4027 95.3605 20.808C94.5498 21.192 93.5472 21.384 92.3525 21.384ZM99.9622 14.728C99.9622 13.256 100.208 11.9227 100.698 10.728C101.21 9.512 101.872 8.47733 102.682 7.624C103.514 6.74933 104.442 6.07733 105.466 5.608C106.49 5.13867 107.514 4.904 108.538 4.904C109.456 4.904 110.224 5.05333 110.842 5.352C111.482 5.65067 111.994 6.06667 112.378 6.6C112.784 7.112 113.072 7.72 113.242 8.424C113.434 9.128 113.53 9.88533 113.53 10.696C113.53 11.3787 113.445 12.04 113.274 12.68C113.104 13.32 112.965 13.768 112.858 14.024H103.29C103.205 14.856 103.248 15.5707 103.418 16.168C103.589 16.7653 103.845 17.256 104.186 17.64C104.549 18.024 104.986 18.312 105.498 18.504C106.01 18.6747 106.565 18.76 107.162 18.76C107.717 18.76 108.282 18.632 108.858 18.376C109.434 18.12 109.936 17.832 110.362 17.512L111.642 19.72C111.002 20.168 110.224 20.5627 109.306 20.904C108.41 21.224 107.397 21.384 106.266 21.384C105.328 21.384 104.474 21.2347 103.706 20.936C102.938 20.6373 102.277 20.2107 101.722 19.656C101.168 19.08 100.73 18.3867 100.41 17.576C100.112 16.744 99.9622 15.7947 99.9622 14.728ZM103.578 11.848H110.522C110.565 11.6347 110.597 11.4213 110.618 11.208C110.661 10.9733 110.682 10.728 110.682 10.472C110.682 9.704 110.49 9.032 110.106 8.456C109.744 7.85867 109.082 7.56 108.122 7.56C107.162 7.56 106.256 7.944 105.402 8.712C104.57 9.45867 103.962 10.504 103.578 11.848ZM119.843 21.384C119.353 21.384 118.841 21.3093 118.307 21.16C117.795 21.0107 117.294 20.808 116.803 20.552C116.313 20.296 115.854 19.9867 115.427 19.624C115.001 19.24 114.638 18.824 114.339 18.376L116.387 16.712C116.899 17.3947 117.465 17.9173 118.083 18.28C118.723 18.6427 119.395 18.824 120.099 18.824C120.846 18.824 121.486 18.632 122.019 18.248C122.574 17.8427 122.851 17.352 122.851 16.776C122.851 16.2853 122.627 15.8693 122.179 15.528C121.731 15.1653 121.017 14.7067 120.035 14.152C118.99 13.576 118.169 12.9467 117.571 12.264C116.974 11.5813 116.675 10.76 116.675 9.8C116.675 9.096 116.825 8.44533 117.123 7.848C117.422 7.22933 117.827 6.70667 118.339 6.28C118.873 5.85333 119.481 5.52267 120.163 5.288C120.867 5.032 121.614 4.904 122.403 4.904C123.427 4.904 124.345 5.11733 125.155 5.544C125.987 5.97067 126.713 6.504 127.331 7.144L125.411 8.968C125.006 8.56267 124.558 8.22133 124.067 7.944C123.577 7.64533 123.022 7.496 122.403 7.496C121.678 7.496 121.081 7.688 120.611 8.072C120.142 8.456 119.907 8.92533 119.907 9.48C119.907 9.77867 119.982 10.0347 120.131 10.248C120.281 10.4613 120.483 10.664 120.739 10.856C120.995 11.048 121.283 11.2293 121.603 11.4C121.923 11.5707 122.254 11.752 122.595 11.944C123.769 12.5627 124.643 13.2133 125.219 13.896C125.795 14.5787 126.083 15.4 126.083 16.36C126.083 17.128 125.923 17.8213 125.603 18.44C125.305 19.0587 124.878 19.592 124.323 20.04C123.769 20.4667 123.107 20.7973 122.339 21.032C121.571 21.2667 120.739 21.384 119.843 21.384ZM133.062 21.384C132.571 21.384 132.059 21.3093 131.526 21.16C131.014 21.0107 130.513 20.808 130.022 20.552C129.531 20.296 129.073 19.9867 128.646 19.624C128.219 19.24 127.857 18.824 127.558 18.376L129.606 16.712C130.118 17.3947 130.683 17.9173 131.302 18.28C131.942 18.6427 132.614 18.824 133.318 18.824C134.065 18.824 134.705 18.632 135.238 18.248C135.793 17.8427 136.07 17.352 136.07 16.776C136.07 16.2853 135.846 15.8693 135.398 15.528C134.95 15.1653 134.235 14.7067 133.254 14.152C132.209 13.576 131.387 12.9467 130.79 12.264C130.193 11.5813 129.894 10.76 129.894 9.8C129.894 9.096 130.043 8.44533 130.342 7.848C130.641 7.22933 131.046 6.70667 131.558 6.28C132.091 5.85333 132.699 5.52267 133.382 5.288C134.086 5.032 134.833 4.904 135.622 4.904C136.646 4.904 137.563 5.11733 138.374 5.544C139.206 5.97067 139.931 6.504 140.55 7.144L138.63 8.968C138.225 8.56267 137.777 8.22133 137.286 7.944C136.795 7.64533 136.241 7.496 135.622 7.496C134.897 7.496 134.299 7.688 133.83 8.072C133.361 8.456 133.126 8.92533 133.126 9.48C133.126 9.77867 133.201 10.0347 133.35 10.248C133.499 10.4613 133.702 10.664 133.958 10.856C134.214 11.048 134.502 11.2293 134.822 11.4C135.142 11.5707 135.473 11.752 135.814 11.944C136.987 12.5627 137.862 13.2133 138.438 13.896C139.014 14.5787 139.302 15.4 139.302 16.36C139.302 17.128 139.142 17.8213 138.822 18.44C138.523 19.0587 138.097 19.592 137.542 20.04C136.987 20.4667 136.326 20.7973 135.558 21.032C134.79 21.2667 133.958 21.384 133.062 21.384Z" fill="url(#paint1_linear)"/>
<defs>
<linearGradient id="paint0_linear" x1="70" y1="-10" x2="70" y2="30" gradientUnits="userSpaceOnUse">
<stop stop-color="white"/>
<stop offset="1" stop-color="white" stop-opacity="0"/>
</linearGradient>
<linearGradient id="paint1_linear" x1="70" y1="-10" x2="70" y2="30" gradientUnits="userSpaceOnUse">
<stop stop-color="white"/>
<stop offset="1" stop-color="white" stop-opacity="0"/>
</linearGradient>
</defs>
</svg>
