<svg width="100" height="100" viewBox="0 0 100 100" fill="none" xmlns="http://www.w3.org/2000/svg">
<path d="M93.1803 86.0356C96.9406 86.0356 100 82.9762 100 79.2156V9.76562C100 4.38086 95.6191 0 90.2344 0H9.76562C4.38086 0 0 4.38086 0 9.76562V79.2156C0 82.9762 3.05937 86.0356 6.81973 86.0356H8.98438V96.0938H1.95312C0.874414 96.0938 0 96.9684 0 98.0469C0 99.1254 0.874414 100 1.95312 100H98.0469C99.1256 100 100 99.1254 100 98.0469C100 96.9684 99.1256 96.0938 98.0469 96.0938H91.0156V86.0356H93.1803ZM3.90625 9.76562C3.90625 6.53477 6.53477 3.90625 9.76562 3.90625H90.2344C93.4652 3.90625 96.0938 6.53477 96.0938 9.76562V14.0625H4.10234C4.03613 14.0625 3.9707 14.066 3.90625 14.0725V9.76562ZM21.4844 96.0938H12.8906V78.5156H21.4844V96.0938ZM43.3594 96.0938H34.7656V56.9203H43.3594V96.0938ZM65.2344 96.0938H56.6406V73.4375H65.2344V96.0938ZM89.0625 50.0977H76.5625C75.4838 50.0977 74.6094 50.9723 74.6094 52.0508V75.0488C74.6094 76.1273 75.4838 77.002 76.5625 77.002C77.6412 77.002 78.5156 76.1273 78.5156 75.0488V54.0039H87.1094V96.0938H78.5156V75.0488C78.5156 73.9703 77.6412 73.0957 76.5625 73.0957C75.4838 73.0957 74.6094 73.9703 74.6094 75.0488V96.0938H69.1406V71.4844C69.1406 70.4059 68.2662 69.5312 67.1875 69.5312H54.6875C53.6088 69.5312 52.7344 70.4059 52.7344 71.4844V96.0938H47.2656V54.9672C47.2656 53.8887 46.3912 53.0141 45.3125 53.0141H32.8125C31.7338 53.0141 30.8594 53.8887 30.8594 54.9672V96.0938H25.3906V76.5625C25.3906 75.484 24.5162 74.6094 23.4375 74.6094H10.9375C9.85879 74.6094 8.98438 75.484 8.98438 76.5625V82.1293H6.81973C5.21309 82.1293 3.90625 80.8223 3.90625 79.2156V17.9588C3.9707 17.9652 4.03613 17.9688 4.10234 17.9688H96.0938V79.2156C96.0938 80.8223 94.7867 82.1293 93.1803 82.1293H91.0156V52.0508C91.0156 50.9723 90.1412 50.0977 89.0625 50.0977Z" fill="#282828"/>
<path d="M82.8123 26.5508C78.9352 26.5508 75.7811 29.7049 75.7811 33.582C75.7811 35.1221 76.2801 36.5471 77.123 37.7066L64.1494 50.6803C63.1426 50.123 61.9859 49.8047 60.7559 49.8047C59.6475 49.8047 58.5986 50.0635 57.6652 50.5223L44.1186 36.9756C44.6758 35.9688 44.9941 34.8121 44.9941 33.582C44.9941 29.7049 41.84 26.5508 37.9629 26.5508C34.0857 26.5508 30.9316 29.7049 30.9316 33.582C30.9316 34.9371 31.318 36.2031 31.9848 37.2777L20.451 48.8113C19.4441 48.2541 18.2875 47.9357 17.0576 47.9357C13.1805 47.9357 10.0264 51.0898 10.0264 54.967C10.0264 58.8441 13.1805 61.9982 17.0576 61.9982C20.9348 61.9982 24.0889 58.8441 24.0889 54.967C24.0889 53.7369 23.7705 52.5803 23.2133 51.5734L34.8848 39.902C35.815 40.3568 36.8596 40.6131 37.9629 40.6131C39.1928 40.6131 40.3494 40.2947 41.3562 39.7375L54.7703 53.1514C54.108 54.2236 53.7246 55.4854 53.7246 56.8356C53.7246 60.7127 56.8787 63.8668 60.7559 63.8668C64.633 63.8668 67.7871 60.7127 67.7871 56.8356C67.7871 55.6055 67.4688 54.4488 66.9115 53.442L80.2328 40.1207C81.0322 40.4375 81.9019 40.6133 82.8123 40.6133C86.6894 40.6133 89.8436 37.4592 89.8436 33.582C89.8436 29.7049 86.6894 26.5508 82.8123 26.5508ZM17.0578 58.0924C15.3348 58.0924 13.9328 56.6904 13.9328 54.9674C13.9328 53.2443 15.3348 51.8424 17.0578 51.8424C18.7809 51.8424 20.1828 53.2443 20.1828 54.9674C20.1828 56.6904 18.7809 58.0924 17.0578 58.0924ZM37.9631 36.707C36.24 36.707 34.8381 35.3051 34.8381 33.582C34.8381 31.859 36.24 30.457 37.9631 30.457C39.6861 30.457 41.0881 31.859 41.0881 33.582C41.0881 35.3051 39.6861 36.707 37.9631 36.707ZM60.7561 59.9609C59.033 59.9609 57.6311 58.559 57.6311 56.8359C57.6311 55.1129 59.033 53.7109 60.7561 53.7109C62.4791 53.7109 63.8811 55.1129 63.8811 56.8359C63.8811 58.559 62.4791 59.9609 60.7561 59.9609ZM82.8123 36.707C81.0893 36.707 79.6873 35.3051 79.6873 33.582C79.6873 31.859 81.0893 30.457 82.8123 30.457C84.5353 30.457 85.9373 31.859 85.9373 33.582C85.9373 35.3051 84.5353 36.707 82.8123 36.707Z" fill="#282828"/>
</svg>
