<svg width="84" height="100" viewBox="0 0 84 100" fill="none" xmlns="http://www.w3.org/2000/svg">
<path d="M82.4799 97.0531H81.3559V89.7464C81.3559 86.1852 78.5146 83.2572 74.9147 82.9757V80.7651C74.9147 78.162 72.7442 76.0423 70.066 76.015L67.5366 48.976C67.0527 43.8044 64.6084 39.0275 60.6533 35.5254C58.4526 33.5765 55.8881 32.1157 53.1234 31.2025V27.8983C53.1234 26.1571 51.9032 24.6903 50.2492 24.2501V22.3556C50.2492 20.6321 49.0915 19.1683 47.4914 18.6494L46.956 16.2106C46.7813 15.4145 45.9734 14.9073 45.1531 15.076C44.3322 15.2454 43.8081 16.0281 43.983 16.8239L44.339 18.4459H39.4988L41.919 7.42142L43.983 16.8239C44.1577 17.62 44.9654 18.127 45.7859 17.9585C46.6069 17.7891 47.1309 17.0064 46.956 16.2106L43.7054 1.40213C43.524 0.576606 42.7894 0 41.9188 0C41.0483 0 40.3137 0.576606 40.1325 1.40213L36.3463 18.6494C34.7462 19.1683 33.5884 20.6321 33.5884 22.3556V24.2501C31.9347 24.6905 30.7143 26.1571 30.7143 27.8983V31.2025C27.9496 32.1157 25.3851 33.5765 23.1844 35.5254C19.2293 39.0275 16.785 43.8044 16.3011 48.976L13.771 76.0201C11.1871 76.1493 9.12558 78.2281 9.12558 80.7651V82.9757C5.52556 83.257 2.68446 86.185 2.68446 89.7464V97.0531H1.51985C0.680284 97.0531 0 97.7128 0 98.5266C0 99.3403 0.680284 100 1.51985 100H82.4802C83.3197 100 84 99.3403 84 98.5266C84 97.7128 83.3193 97.0531 82.4799 97.0531ZM66.2974 68.3574L63.6326 70.9408L60.0843 67.501L63.6326 64.0612L66.1211 66.4739L66.2974 68.3574ZM64.2527 47.4911C64.3666 48.0679 64.4537 48.6518 64.5091 49.2424L64.8244 52.614L63.6324 53.7696L60.0841 50.3298L63.6324 46.89L64.2527 47.4911ZM36.6279 22.3556C36.6279 21.8252 37.073 21.3936 37.6199 21.3928L37.6229 21.393L37.6264 21.3928H46.2115L46.2149 21.393L46.218 21.3928C46.7649 21.3936 47.2099 21.825 47.2099 22.3556V24.1116H36.6283L36.6279 22.3556ZM33.754 27.8985C33.754 27.4354 34.1427 27.0586 34.6203 27.0586H49.2172C49.6948 27.0586 50.0835 27.4354 50.0835 27.8985V30.4356C48.8163 30.2106 47.522 30.0949 46.2139 30.0949H37.6233C36.3153 30.0949 35.021 30.2108 33.7538 30.4356L33.754 27.8985ZM20.4075 46.8898L23.9559 50.3296L20.4075 53.7694L19.0299 52.4334L19.3284 49.2422C19.376 48.7335 19.4484 48.2298 19.5396 47.7312L20.4075 46.8898ZM17.6961 66.6897L20.4075 64.061L23.9559 67.5008L20.4075 70.9406L17.5571 68.1768L17.6961 66.6897ZM5.72395 89.7464C5.72395 87.6247 7.50461 85.8984 9.69319 85.8984H34.3367H58.9802C59.8197 85.8984 60.5 85.2387 60.5 84.425C60.5 83.6112 59.8197 82.9515 58.9802 82.9515H12.1653V80.7651C12.1653 79.7701 13.0002 78.9605 14.0266 78.9605H24.8838C25.7233 78.9605 26.4036 78.3008 26.4036 77.487C26.4036 76.6733 25.7233 76.0136 24.8838 76.0136H16.8241L17.1998 71.998L18.5653 73.3217C19.0575 73.7989 19.7118 74.0616 20.4079 74.0616C21.1042 74.0616 21.7586 73.7987 22.2508 73.3215L26.4123 69.287C27.4282 68.302 27.4282 66.6993 26.4123 65.7142L22.2508 61.68C21.7586 61.2028 21.1042 60.9399 20.4079 60.9399C19.7118 60.9399 19.0575 61.2026 18.5651 61.68L18.1253 62.1063L18.6737 56.2457C19.1519 56.6608 19.7611 56.8903 20.4079 56.8903C21.1042 56.8903 21.7586 56.6274 22.2508 56.1502L26.4123 52.1158C27.4282 51.1307 27.4282 49.528 26.4121 48.5428L22.251 44.5087C21.8423 44.1122 21.3208 43.8665 20.7571 43.7936C21.7778 41.4993 23.2928 39.4208 25.2346 37.7012C28.6279 34.6964 33.0277 33.0414 37.6237 33.0414H46.2145C50.8106 33.0414 55.2104 34.6962 58.6037 37.7012C60.5538 39.4281 62.0732 41.5174 63.094 43.8234C62.6036 43.923 62.1527 44.157 61.7906 44.5085L57.6288 48.543C56.6129 49.528 56.6129 51.1307 57.6288 52.116L61.7904 56.1502C62.2826 56.6274 62.9369 56.8903 63.6332 56.8903C64.1978 56.8903 64.7334 56.7149 65.1788 56.3948L65.6929 61.8904L65.4759 61.68C64.9837 61.2028 64.3293 60.9401 63.6332 60.9401C62.9369 60.9401 62.2826 61.203 61.7904 61.6802L57.6288 65.7146C56.6129 66.6997 56.6129 68.3024 57.6288 69.2874L61.7904 73.3217C62.2826 73.7989 62.9369 74.0618 63.6332 74.0618C64.3293 74.0618 64.9837 73.7991 65.4761 73.3217L66.6555 72.1783L67.0144 76.0136H25.0198C24.1803 76.0136 23.5 76.6733 23.5 77.487C23.5 78.3008 24.1803 78.9605 25.0198 78.9605H70.0137C71.0399 78.9605 71.8751 79.7701 71.8751 80.7651V82.9515H59.2528C58.4132 82.9515 57.733 83.6112 57.733 84.425C57.733 85.2387 58.4132 85.8984 59.2528 85.8984H74.3469C76.5355 85.8984 78.3162 87.6247 78.3162 89.7464V97.0531H5.72395V89.7464Z" fill="#282828"/>
<path d="M35.9143 52.1167L40.0758 56.1509C40.568 56.6281 41.2224 56.891 41.9187 56.891C42.615 56.891 43.2693 56.6281 43.7615 56.1509L47.9231 52.1165C48.939 51.1314 48.9389 49.5287 47.9229 48.5435L43.7613 44.5096C43.2691 44.0324 42.6148 43.7695 41.9185 43.7695C41.2222 43.7695 40.5678 44.0324 40.0758 44.5096L35.9141 48.5441C34.8984 49.5289 34.8984 51.1316 35.9143 52.1167ZM41.9187 46.8905L45.467 50.3303L41.9187 53.7701L38.3703 50.3303L41.9187 46.8905Z" fill="#282828"/>
<path d="M50.933 46.584C51.4252 47.0612 52.0795 47.3239 52.7756 47.3239C53.4719 47.3239 54.1263 47.061 54.6185 46.5838L57.0772 44.2002C57.5694 43.723 57.8406 43.0886 57.8406 42.4138C57.8406 41.739 57.5694 41.1044 57.0772 40.6274L54.6185 38.244C54.1263 37.7668 53.4719 37.5039 52.7756 37.5039C52.0795 37.5039 51.4252 37.7666 50.9328 38.244L48.4741 40.6276C47.4582 41.6126 47.4582 43.2153 48.4741 44.2004L50.933 46.584ZM52.7756 40.6248L54.6209 42.4138L52.7756 44.2028L50.9303 42.4138L52.7756 40.6248Z" fill="#282828"/>
<path d="M31.2646 47.3239C31.9607 47.3239 32.6151 47.0612 33.1075 46.5838L35.5662 44.2002C36.5821 43.2152 36.5821 41.6124 35.5662 40.6274L33.1073 38.2438C32.6151 37.7666 31.9607 37.5039 31.2646 37.5039C30.5684 37.5039 29.914 37.7668 29.4218 38.244L26.9633 40.6274C26.4708 41.1046 26.1997 41.7392 26.1997 42.414C26.1997 43.0888 26.4708 43.7234 26.9631 44.2004L29.4218 46.5838C29.914 47.061 30.5686 47.3239 31.2646 47.3239ZM31.2646 40.6248L33.1099 42.4138L31.2646 44.2028L29.4194 42.4138L31.2646 40.6248Z" fill="#282828"/>
<path d="M52.7756 53.5566C52.0795 53.5566 51.4252 53.8193 50.9328 54.2967L48.4741 56.6803C47.4582 57.6654 47.4582 59.2681 48.4741 60.2533L50.933 62.637C51.4252 63.1142 52.0795 63.3768 52.7756 63.3768C53.4719 63.3768 54.1263 63.114 54.6185 62.6368L57.0772 60.2531C57.5694 59.7759 57.8406 59.1416 57.8406 58.4665C57.8406 57.7917 57.5694 57.1571 57.0772 56.6801L54.6185 54.2967C54.1263 53.8195 53.4717 53.5566 52.7756 53.5566ZM52.7756 60.2559L50.9303 58.4669L52.7756 56.6778L54.6209 58.4667L52.7756 60.2559Z" fill="#282828"/>
<path d="M33.1075 62.6368L35.5662 60.2531C36.5821 59.2681 36.5821 57.6654 35.5662 56.6801L33.1073 54.2965C32.6151 53.8193 31.9607 53.5566 31.2646 53.5566C30.5684 53.5566 29.914 53.8195 29.4218 54.2967L26.9633 56.6801C26.4708 57.1573 26.1997 57.7919 26.1997 58.4667C26.1997 59.1418 26.4708 59.7761 26.9631 60.2533L29.4218 62.6368C29.914 63.114 30.5684 63.3768 31.2646 63.3768C31.9607 63.3766 32.6153 63.114 33.1075 62.6368ZM29.4194 58.4665L31.2646 56.6776L33.1099 58.4665L31.2646 60.2557L29.4194 58.4665Z" fill="#282828"/>
<path d="M43.7615 61.6815C43.2693 61.2043 42.6149 60.9414 41.9187 60.9414C41.2224 60.9414 40.568 61.2043 40.0758 61.6815L35.9142 65.7159C34.8984 66.701 34.8984 68.3037 35.9142 69.2887L40.0758 73.323C40.568 73.8002 41.2224 74.0631 41.9187 74.0631C42.6149 74.0631 43.2693 73.8002 43.7615 73.323L47.9231 69.2885C48.9389 68.3035 48.9389 66.7008 47.9231 65.7157L43.7615 61.6815ZM41.9189 70.9421L38.3705 67.5023L41.9189 64.0625L45.4672 67.5023L41.9189 70.9421Z" fill="#282828"/>
</svg>
