<svg width="100" height="100" viewBox="0 0 100 100" fill="none" xmlns="http://www.w3.org/2000/svg">
<path d="M98.2046 48.3379H84.9067C84.4659 48.3379 84.0431 48.513 83.7314 48.8247C83.4196 49.1365 83.2445 49.5593 83.2445 50.0001V64.9602H71.6089C71.168 64.9602 70.7452 65.1354 70.4335 65.4471C70.1218 65.7588 69.9466 66.1816 69.9466 66.6225V78.2581H58.311C57.8701 78.2581 57.4474 78.4332 57.1356 78.745C56.8239 79.0567 56.6488 79.4795 56.6488 79.9203V94.8804H53.3243V78.2581C53.3243 77.3235 52.8723 75.5748 49.8451 74.3641C48.0837 73.6594 45.7773 73.2714 43.3509 73.2714C40.9245 73.2714 38.6181 73.6594 36.8567 74.3641C36.8037 74.3853 36.7534 74.407 36.702 74.4285V69.9469C36.702 69.0123 36.25 67.2637 33.2228 66.0529C31.4613 65.3482 29.1549 64.9602 26.7286 64.9602C24.3022 64.9602 21.9958 65.3482 20.2343 66.0529C20.1814 66.0741 20.131 66.0958 20.0796 66.1173V53.3246C20.0796 52.39 19.6276 50.6413 16.6004 49.4306C14.839 48.7259 12.5326 48.3379 10.1062 48.3379C7.67983 48.3379 5.37346 48.7259 3.612 49.4306C0.584792 50.6413 0.132812 52.39 0.132812 53.3246V94.8804C0.132812 95.815 0.584792 97.5637 3.612 98.7745C5.37346 99.4792 7.67983 99.8671 10.1062 99.8671C12.5326 99.8671 14.839 99.4792 16.6004 98.7745C17.2461 98.526 17.8568 98.1949 18.4174 97.7894C18.9779 98.1949 19.5887 98.526 20.2343 98.7745C21.9958 99.4792 24.3022 99.8671 26.7286 99.8671C29.1549 99.8671 31.4613 99.4792 33.2228 98.7745C33.8684 98.526 34.4792 98.1949 35.0397 97.7894C35.6003 98.1949 36.211 98.526 36.8567 98.7745C38.6181 99.4792 40.9245 99.8671 43.3509 99.8671C45.7773 99.8671 48.0837 99.4792 49.8451 98.7745C50.2524 98.6135 50.6474 98.4231 51.027 98.2049H98.2046C98.6455 98.2049 99.0683 98.0298 99.38 97.7181C99.6917 97.4063 99.8669 96.9835 99.8669 96.5427V50.0001C99.8669 49.5593 99.6917 49.1365 99.38 48.8247C99.0683 48.513 98.6455 48.3379 98.2046 48.3379ZM3.45728 82.0877C3.50868 82.1092 3.55903 82.1309 3.612 82.1521C5.37346 82.8568 7.67983 83.2448 10.1062 83.2448C12.5326 83.2448 14.839 82.8568 16.6004 82.1521C16.6534 82.1309 16.7038 82.1092 16.7552 82.0877V86.5064C16.4664 87.0211 14.1665 88.2315 10.1062 88.2315C6.04594 88.2315 3.74603 87.0211 3.45728 86.5064V82.0877ZM3.45728 73.7765C3.50868 73.7981 3.55903 73.8198 3.612 73.841C5.37346 74.5457 7.67983 74.9336 10.1062 74.9336C12.5326 74.9336 14.839 74.5457 16.6004 73.841C16.6534 73.8198 16.7038 73.7981 16.7552 73.7765V78.1952C16.4664 78.7099 14.1665 79.9203 10.1062 79.9203C6.04594 79.9203 3.74603 78.7099 3.45728 78.1952V73.7765ZM3.45728 65.4654C3.50868 65.4869 3.55903 65.5086 3.612 65.5298C5.37346 66.2345 7.67983 66.6225 10.1062 66.6225C12.5326 66.6225 14.839 66.2345 16.6004 65.5298C16.6534 65.5086 16.7038 65.4869 16.7552 65.4654V69.884C16.4664 70.3987 14.1665 71.6092 10.1062 71.6092C6.04594 71.6092 3.74603 70.3987 3.45728 69.884V65.4654ZM3.45728 57.1542C3.50868 57.1757 3.55903 57.1974 3.612 57.2186C5.37346 57.9233 7.67983 58.3113 10.1062 58.3113C12.5326 58.3113 14.839 57.9233 16.6004 57.2186C16.6534 57.1974 16.7038 57.1757 16.7552 57.1542V61.5729C16.4664 62.0875 14.1665 63.298 10.1062 63.298C6.04594 63.298 3.74603 62.0875 3.45728 61.5729V57.1542ZM26.7286 79.9203C22.6683 79.9203 20.3684 78.7099 20.0796 78.1952V73.7765C20.131 73.7981 20.1814 73.8198 20.2343 73.841C21.9958 74.5457 24.3022 74.9336 26.7286 74.9336C29.1549 74.9336 31.4613 74.5457 33.2228 73.841C33.2757 73.8198 33.3261 73.7981 33.3775 73.7765V78.1952C33.0887 78.7099 30.7888 79.9203 26.7286 79.9203ZM20.0796 82.0877C20.131 82.1092 20.1814 82.1309 20.2343 82.1521C21.9958 82.8568 24.3022 83.2448 26.7286 83.2448C29.1549 83.2448 31.4613 82.8568 33.2228 82.1521C33.2757 82.1309 33.3261 82.1092 33.3775 82.0877V86.5064C33.0887 87.0211 30.7888 88.2315 26.7286 88.2315C22.6683 88.2315 20.3684 87.0211 20.0796 86.5064V82.0877ZM36.702 82.0877C36.7534 82.1092 36.8037 82.1309 36.8567 82.1521C38.6181 82.8568 40.9245 83.2448 43.3509 83.2448C45.7773 83.2448 48.0837 82.8568 49.8451 82.1521C49.8981 82.1309 49.9484 82.1092 49.9998 82.0877V86.5064C49.7111 87.0211 47.4112 88.2315 43.3509 88.2315C39.2906 88.2315 36.9907 87.0211 36.702 86.5064V82.0877ZM43.3509 76.5959C47.2624 76.5959 49.5358 77.718 49.9558 78.2604C49.5235 78.8051 47.2478 79.9203 43.3509 79.9203C39.454 79.9203 37.1782 78.8051 36.746 78.2604C37.166 77.718 39.4394 76.5959 43.3509 76.5959ZM26.7286 68.2847C30.6401 68.2847 32.9135 69.4068 33.3334 69.9493C32.9012 70.494 30.6254 71.6092 26.7286 71.6092C22.8261 71.6092 20.5495 70.4908 20.122 69.9469C20.5495 69.403 22.8261 68.2847 26.7286 68.2847ZM10.1062 51.6624C14.0177 51.6624 16.2912 52.7844 16.7111 53.3269C16.2789 53.8716 14.0031 54.9868 10.1062 54.9868C6.20934 54.9868 3.93356 53.8716 3.50133 53.3269C3.92127 52.7844 6.19471 51.6624 10.1062 51.6624ZM10.1062 96.5427C6.0531 96.5427 3.75262 95.336 3.45728 94.8198V90.3989C3.50868 90.4204 3.55903 90.4421 3.612 90.4633C5.37346 91.168 7.67983 91.556 10.1062 91.556C12.5326 91.556 14.839 91.168 16.6004 90.4633C16.6534 90.4421 16.7038 90.4204 16.7552 90.3989V94.8198C16.4598 95.336 14.1593 96.5427 10.1062 96.5427ZM26.7286 96.5427C22.6683 96.5427 20.3684 95.3322 20.0796 94.8175V90.3989C20.131 90.4204 20.1814 90.4421 20.2343 90.4633C21.9958 91.168 24.3022 91.556 26.7286 91.556C29.1549 91.556 31.4613 91.168 33.2228 90.4633C33.2757 90.4421 33.3261 90.4204 33.3775 90.3989V94.8198C33.0822 95.336 30.7817 96.5427 26.7286 96.5427ZM43.3509 96.5427C39.2978 96.5427 36.9973 95.336 36.702 94.8198V90.3989C36.7534 90.4204 36.8037 90.4421 36.8567 90.4633C38.6181 91.168 40.9245 91.556 43.3509 91.556C45.7773 91.556 48.0837 91.168 49.8451 90.4633C49.8981 90.4421 49.9484 90.4204 49.9998 90.3989V94.8198C49.7045 95.336 47.404 96.5427 43.3509 96.5427ZM59.9732 81.5826H69.9466V94.8804H59.9732V81.5826ZM73.2711 68.2847H83.2445V94.8804H73.2711V68.2847ZM86.569 94.8804V51.6624H96.5424V94.8804H86.569Z" fill="#282828"/>
<path d="M50 66.6219V69.9464H58.3112C58.752 69.9464 59.1748 69.7713 59.4865 69.4596L93.2181 35.728V38.3639H96.5426V31.715C96.5426 31.2741 96.3674 30.8513 96.0557 30.5396C95.744 30.2279 95.3212 30.0527 94.8803 30.0527H88.2314V33.3772H90.8673L57.6226 66.6219H50Z" fill="#282828"/>
<path d="M72.0507 10.6922C64.6902 3.89219 55.0341 0.121045 45.0132 0.13284C23.0158 0.13284 5.11963 18.029 5.11963 40.0265C5.11965 41.7657 5.23196 43.5031 5.45585 45.2278L8.75252 44.7985C8.54712 43.2161 8.4441 41.6221 8.4441 40.0265C8.4441 39.4693 8.45871 38.9154 8.4835 38.3642H15.9242L20.4122 44.3482C20.567 44.5547 20.7678 44.7222 20.9986 44.8377C21.2294 44.9531 21.4839 45.0132 21.742 45.0132H34.0987L37.8298 51.2317L32.3803 55.3189C32.1739 55.4738 32.0063 55.6746 31.8909 55.9054C31.7755 56.1362 31.7154 56.3907 31.7154 56.6488V61.6355H35.0398V57.4799L41.0238 52.992C41.3529 52.7452 41.5787 52.3852 41.6578 51.9817C41.7368 51.5781 41.6635 51.1595 41.4519 50.8068L36.4652 42.4957C36.3175 42.2495 36.1086 42.0459 35.8588 41.9044C35.609 41.763 35.3269 41.6887 35.0398 41.6887H22.5731L18.085 35.7047C17.9302 35.4982 17.7295 35.3307 17.4986 35.2152C17.2678 35.0998 17.0133 35.0397 16.7553 35.0398H8.78553C9.65616 28.6976 12.1842 22.6974 16.1145 17.6443L21.742 21.0207V26.7286C21.742 27.1694 21.9171 27.5922 22.2288 27.904C22.5406 28.2157 22.9634 28.3908 23.4042 28.3908H31.0268L37.1889 34.553C37.4607 34.8247 37.8181 34.9938 38.2005 35.0317C38.5829 35.0695 38.9666 34.9737 39.2863 34.7605L49.2597 28.1116C49.4874 27.9598 49.6741 27.7542 49.8033 27.5129C49.9324 27.2716 50 27.0022 50 26.7286V17.4437L60.5359 6.90779C63.1189 8.11969 65.5508 9.63039 67.7818 11.4089L58.9092 18.8028C58.6396 19.0274 58.448 19.3317 58.3619 19.672C58.2758 20.0123 58.2997 20.371 58.43 20.6969L61.4075 28.1409L57.48 33.3775H50C49.6403 33.3775 49.2904 33.4942 49.0026 33.7099L42.3537 38.6966C42.0138 38.9515 41.7844 39.327 41.7127 39.7458C41.6409 40.1646 41.7323 40.5949 41.968 40.9485L48.6169 50.9219C48.7687 51.1496 48.9743 51.3363 49.2156 51.4654C49.4569 51.5945 49.7263 51.6621 50 51.6621H54.9867V61.6355H58.3111V49.9999C58.3111 49.559 58.136 49.1362 57.8243 48.8245C57.5125 48.5128 57.0897 48.3376 56.6489 48.3376H50.8895L45.6063 40.4128L50.554 36.702H58.3111C58.5692 36.702 58.8237 36.6419 59.0545 36.5265C59.2853 36.4111 59.4861 36.2435 59.6409 36.0371L64.6276 29.3881C64.7988 29.16 64.9083 28.8916 64.9457 28.6088C64.9831 28.326 64.9471 28.0384 64.8412 27.7736L61.9652 20.5835L70.3151 13.6253C76.7279 19.7522 80.6855 28.008 81.4459 36.8446L84.7582 36.5594C83.9061 26.6513 79.3722 17.4222 72.0507 10.6922ZM47.1624 15.5797C46.8506 15.8915 46.6755 16.3143 46.6755 16.7552V25.839L38.5761 31.2387L32.8907 25.5531C32.579 25.2414 32.1562 25.0663 31.7154 25.0663H25.0664V20.0796C25.0664 19.7926 24.9921 19.5104 24.8507 19.2606C24.7092 19.0108 24.5055 18.8019 24.2594 18.6542L18.3014 15.0794C23.1537 9.87671 29.4187 6.20305 36.3283 4.50889C43.2379 2.81472 50.4917 3.17368 57.2003 5.54175L47.1624 15.5797Z" fill="#282828"/>
</svg>
